<svg xmlns="http://www.w3.org/2000/svg" viewBox="0 0 503.81 242.77"><defs><style>.cls-1{isolation:isolate;}.cls-2{fill:#fcbb2f;}.cls-3{fill:#906828;mix-blend-mode:multiply;}.cls-4{fill:#fbac18;}.cls-5{fill:#dd9c27;}.cls-6{fill:#fff;opacity:0.18;}.cls-7{fill:#535260;}</style></defs><g class="cls-1"><g id="Layer_2" data-name="Layer 2"><g id="Layer_1-2" data-name="Layer 1"><rect class="cls-2" x="401.02" y="48.03" width="40.33" height="88.74"/><polygon class="cls-3" points="401.02 66.36 401.02 74.79 441.36 130.17 401.02 66.36"/><polygon class="cls-3" points="401.02 48.03 403.96 57.1 441.36 48.03 401.02 48.03"/><polygon class="cls-4" points="395.52 48.03 398.86 53.96 441.36 48.03 395.52 48.03"/><rect class="cls-2" x="210.71" y="48.03" width="40.34" height="88.74"/><polygon class="cls-3" points="210.71 66.36 210.71 74.79 251.04 130.17 210.71 66.36"/><polygon class="cls-3" points="210.71 48.03 213.64 57.1 251.04 48.03 210.71 48.03"/><polygon class="cls-4" points="205.21 48.03 208.54 53.96 251.04 48.03 205.21 48.03"/><path class="cls-5" d="M235.38,183.44q27.15,0,54.3,0L156.62.39,126.28,62.94l87.58,120.51Z"/><path class="cls-5" d="M426.78,184.15q27.15,0,54.3,0L348,1.1,317.68,63.64l87.58,120.52Z"/><path class="cls-2" d="M290.11,183.22,383,49.34,347.46,0,214.12,183.47C239.45,183.36,290.11,183.22,290.11,183.22Z"/><path class="cls-2" d="M98.71,183.22,191.64,49.34,156.07,0,22.73,183.47C48.06,183.36,98.71,183.22,98.71,183.22Z"/><polygon class="cls-3" points="191.64 49.34 154.78 102.48 195.49 54.08 191.64 49.34"/><polygon class="cls-3" points="382.51 49.89 345.65 103.03 386.35 54.63 382.51 49.89"/><polygon class="cls-3" points="247.74 125.77 214.12 183.47 251.78 131.27 247.74 125.77"/><polygon class="cls-6" points="22.73 183.47 98.71 183.22 156.07 0 22.73 183.47"/><polygon class="cls-6" points="214.12 183.47 290.11 183.22 347.46 0 214.12 183.47"/><path class="cls-7" d="M18.38,232.87l3.17.71q-2.28,9.18-10.29,9.19A9.55,9.55,0,0,1,3,238.51a17.66,17.66,0,0,1-3-10.45q0-6.42,3.13-10.3a10.23,10.23,0,0,1,8.4-3.88q7.8,0,10,8.92l-3.27.65q-1.8-6.63-6.77-6.62a6.43,6.43,0,0,0-5.71,3.08c-1.34,2.05-2,4.93-2,8.65a14.43,14.43,0,0,0,2.07,8.18,6.37,6.37,0,0,0,5.49,3.08Q16.65,239.82,18.38,232.87Z"/><path class="cls-7" d="M60,242.77a9.68,9.68,0,0,1-8.33-4.16,17,17,0,0,1-3-10.21A16.67,16.67,0,0,1,51.81,218a10.44,10.44,0,0,1,16.55-.07,16.2,16.2,0,0,1,3.11,10.18,17.69,17.69,0,0,1-3,10.28A9.67,9.67,0,0,1,60,242.77Zm.08-2.83a6.35,6.35,0,0,0,5.69-3.32,16,16,0,0,0,2.06-8.54q0-5.37-2.13-8.37a6.59,6.59,0,0,0-5.64-3A6.44,6.44,0,0,0,54.41,220a15.32,15.32,0,0,0-2.09,8.46,14.86,14.86,0,0,0,2.11,8.32A6.49,6.49,0,0,0,60.08,239.94Z"/><path class="cls-7" d="M121.69,242.2h-3.37L104,218l0,1.83c0,.7.06,1.28.06,1.75V242.2h-2.8V214.45h4.35L119,237.06l0-1.93c0-.76,0-1.43,0-2V214.45h2.74Z"/><path class="cls-7" d="M150.14,234.86l3.13-.71q1.89,5.67,8.19,5.67a7.56,7.56,0,0,0,5-1.4,4.64,4.64,0,0,0,1.67-3.74,3.55,3.55,0,0,0-1.27-2.86,7.08,7.08,0,0,0-2.94-1.49L158.33,229a14.2,14.2,0,0,1-3.53-1.33,6.42,6.42,0,0,1-2.32-2.41,7.22,7.22,0,0,1-1-3.73,6.73,6.73,0,0,1,2.62-5.55,10.61,10.61,0,0,1,6.73-2.06q7.56,0,9.94,6.85l-3.15.93a5.57,5.57,0,0,0-2.58-3.69,8.15,8.15,0,0,0-4.33-1.25,7.05,7.05,0,0,0-4.05,1.21,3.87,3.87,0,0,0-1.78,3.41c0,2.06,1.5,3.44,4.5,4.17l5.19,1.21q7.13,1.71,7.12,7.67a7.71,7.71,0,0,1-2.67,6q-2.69,2.38-7.54,2.39Q152.91,242.77,150.14,234.86Z"/><path class="cls-7" d="M209,242.2h-3.48V217.5h-7.94v-3.05H217v3.05h-8Z"/><path class="cls-7" d="M265.36,242.2h-3.64l-5.12-12h-8v12H245.4V214.45h10.94q4.44,0,6.59,2.43a7.87,7.87,0,0,1,2.15,5.31,8.22,8.22,0,0,1-1.2,4.25,6.68,6.68,0,0,1-4,2.91Zm-16.71-14.84h7.26a5.58,5.58,0,0,0,4.28-1.52,5.25,5.25,0,0,0,1.41-3.71,4.17,4.17,0,0,0-1.49-3.41,5.75,5.75,0,0,0-3.77-1.22h-7.69Z"/><path class="cls-7" d="M310.93,214.45h2.89v18.12q0,5.46-2.68,7.83a10.15,10.15,0,0,1-7,2.37c-3.21,0-5.59-.82-7.14-2.44s-2.31-4.22-2.31-7.76V214.45h3.47v18.13a9.9,9.9,0,0,0,.75,4.55,4.5,4.5,0,0,0,2.28,2,8.29,8.29,0,0,0,3.19.63,6.59,6.59,0,0,0,4.88-1.69q1.67-1.69,1.67-5.45Z"/><path class="cls-7" d="M361.54,232.87l3.17.71q-2.28,9.18-10.29,9.19a9.55,9.55,0,0,1-8.26-4.26,17.66,17.66,0,0,1-3-10.45q0-6.42,3.13-10.3a10.23,10.23,0,0,1,8.4-3.88q7.8,0,10,8.92l-3.27.65q-1.8-6.63-6.77-6.62a6.43,6.43,0,0,0-5.71,3.08c-1.34,2.05-2,4.93-2,8.65a14.43,14.43,0,0,0,2.07,8.18,6.37,6.37,0,0,0,5.49,3.08Q359.81,239.82,361.54,232.87Z"/><path class="cls-7" d="M402,242.2h-3.48V217.5h-7.94v-3.05h19.39v3.05h-8Z"/><path class="cls-7" d="M456.31,239.15v3H438.36V214.45h17.56v3.05H441.84v8.82H453v2.83H441.84v10Z"/><path class="cls-7" d="M502.69,214.45l-7.78,12.7,8.9,15h-3.93l-7-11.83-7.29,11.83h-3.23l8.89-14.36-7.91-13.39h3.88l6.08,10.25,6.23-10.25Z"/></g></g></g></svg>